<?xml version="1.0" standalone="no"?>
<!DOCTYPE svg PUBLIC "-//W3C//DTD SVG 20010904//EN"
 "http://www.w3.org/TR/2001/REC-SVG-20010904/DTD/svg10.dtd">
<svg version="1.0" xmlns="http://www.w3.org/2000/svg"
 width="1024.000000pt" height="1024.000000pt" viewBox="0 0 1024.000000 1024.000000"
 preserveAspectRatio="xMidYMid meet">

<g transform="translate(0.000000,1024.000000) scale(0.100000,-0.100000)"
fill="#000000" stroke="none">
<path d="M5025 8835 c-153 -36 -254 -108 -327 -234 -38 -66 -54 -111 -83 -241
-16 -70 -16 -80 -1 -145 21 -87 68 -173 142 -256 32 -35 58 -63 58 -61 1 2 9
0 19 -4 12 -4 15 -10 7 -19 -10 -13 -4 -25 14 -25 6 0 4 5 -4 10 -8 5 -10 10
-4 10 6 0 14 -3 18 -7 8 -8 11 -9 44 -12 13 -2 11 -5 -8 -13 -21 -9 -22 -12
-7 -15 9 -3 17 -9 17 -14 0 -5 11 -9 24 -9 23 0 23 -3 23 -75 -1 -41 -4 -75
-7 -75 -3 0 -57 -7 -120 -14 -287 -37 -509 -103 -779 -233 -162 -78 -374 -219
-480 -317 l-53 -51 -25 30 c-79 97 -159 236 -207 363 -56 146 -113 432 -87
432 26 0 123 106 153 168 30 60 33 75 33 157 0 76 -4 98 -26 146 -36 75 -95
133 -175 169 -54 25 -79 30 -147 32 -70 1 -91 -3 -140 -26 -97 -45 -144 -100
-196 -229 -16 -40 -14 -160 5 -223 19 -68 66 -130 126 -169 52 -34 58 -52 58
-176 0 -131 47 -338 109 -482 22 -50 28 -91 8 -47 -8 17 -21 26 -42 28 -23 2
-26 0 -15 -8 12 -8 12 -10 1 -10 -11 0 -11 -4 2 -18 10 -10 17 -27 17 -37 0
-18 1 -18 16 1 15 18 15 18 10 -6 -3 -14 -6 -28 -6 -32 0 -4 -7 -5 -15 -2 -8
4 -15 1 -15 -5 0 -6 5 -11 11 -11 6 0 9 -9 6 -20 -6 -24 8 -27 17 -4 5 14 9
13 30 -7 23 -22 24 -46 2 -61 -6 -4 -4 -9 7 -14 9 -3 17 -10 17 -16 0 -5 -4
-7 -9 -4 -5 4 -7 -3 -4 -14 3 -11 10 -20 16 -20 7 0 7 -4 -1 -12 -18 -18 -15
-31 6 -24 16 6 16 5 0 -8 -10 -7 -18 -18 -18 -24 0 -6 -6 -13 -12 -16 -7 -4 2
-4 20 -1 34 5 41 -5 17 -25 -23 -19 -18 -30 13 -31 27 0 27 0 3 -10 l-23 -9
31 -32 c17 -18 29 -37 26 -43 -3 -5 -8 -18 -11 -27 -4 -10 -10 -18 -16 -18 -5
0 -3 -6 4 -14 11 -11 15 -11 25 3 25 33 12 -3 -19 -50 -31 -49 -45 -63 -34
-33 3 8 2 12 -4 9 -6 -3 -10 -1 -10 6 0 7 -3 10 -6 7 -3 -4 -1 -15 5 -27 9
-17 4 -31 -33 -88 -24 -38 -59 -100 -77 -140 -18 -40 -35 -70 -38 -68 -3 2 -7
-7 -7 -19 -2 -33 -43 -117 -44 -89 0 12 6 24 13 27 6 3 -1 4 -18 3 -28 -2 -30
-4 -27 -39 1 -20 -2 -39 -8 -43 -6 -3 -10 3 -10 15 0 12 -4 18 -10 15 -5 -3
-15 5 -22 19 -18 42 -30 30 -26 -26 2 -38 -1 -52 -10 -51 -7 2 -12 -8 -12 -27
0 -21 -5 -30 -16 -30 -8 0 -13 -4 -9 -9 3 -5 -4 -16 -16 -24 -15 -11 -19 -21
-14 -37 4 -12 12 -19 19 -17 7 3 19 1 27 -4 11 -7 10 -9 -6 -9 -11 0 -31 -3
-45 -6 -20 -4 -22 -3 -10 5 12 8 7 11 -20 10 -19 0 -29 -3 -22 -6 19 -7 14
-20 -10 -26 -13 -4 -26 -1 -30 6 -10 16 -42 -3 -46 -28 -4 -15 1 -17 35 -10
44 8 43 5 -14 -24 -38 -19 -43 -19 -57 -5 -15 14 -16 13 -16 -6 0 -14 4 -19
12 -14 20 11 -1 -8 -51 -46 -38 -29 -45 -32 -55 -18 -19 25 -50 38 -67 26 -11
-8 -11 -9 3 -4 11 3 29 -4 44 -18 l27 -23 -26 -29 c-14 -16 -35 -40 -46 -53
-15 -17 -21 -20 -21 -9 0 8 11 24 25 34 14 10 25 24 25 31 0 7 5 13 10 13 18
0 10 19 -12 31 -19 9 -21 9 -11 -2 19 -20 16 -31 -7 -24 -17 5 -20 2 -20 -22
0 -44 -34 -71 -43 -35 -4 16 -5 16 -6 0 0 -10 -9 -18 -18 -19 -13 0 -11 -3 7
-11 20 -9 22 -12 8 -15 -32 -8 -86 -68 -99 -109 -10 -33 -18 -41 -36 -41 -36
0 -29 34 10 51 26 12 28 15 10 15 -12 1 -28 4 -37 7 -13 5 -16 -2 -16 -34 0
-23 4 -44 10 -47 13 -8 13 -95 0 -95 -5 0 -10 -8 -10 -18 0 -10 -6 -26 -14
-37 -7 -11 -13 -27 -14 -35 0 -8 -4 -25 -7 -37 -6 -19 -3 -23 14 -23 26 0 27
-11 1 -28 -11 -7 -20 -21 -20 -32 0 -11 -4 -20 -9 -20 -4 0 -11 -25 -14 -56
-8 -80 -24 -87 -19 -9 3 49 1 65 -9 65 -10 0 -10 3 -1 12 7 7 12 19 12 27 0
11 -4 10 -15 -5 -12 -16 -16 -17 -24 -4 -6 8 -13 11 -17 8 -3 -4 1 -14 10 -23
22 -22 23 -115 1 -115 -8 0 -15 -9 -15 -20 0 -11 7 -20 15 -20 8 0 15 -4 15
-10 0 -14 -11 -13 -54 5 -26 11 -36 22 -36 38 -1 18 -2 19 -10 6 -5 -9 -9 -69
-9 -135 0 -124 1 -152 13 -244 4 -37 3 -48 -3 -34 -5 12 -16 24 -25 27 -9 4
-16 16 -16 28 0 12 -3 19 -7 16 -9 -10 19 -91 35 -101 9 -5 10 -11 4 -15 -5
-3 -13 -40 -17 -81 -7 -68 -6 -73 9 -61 14 11 16 11 16 -2 0 -8 -5 -17 -11
-19 -8 -3 -7 -22 1 -67 6 -36 12 -72 13 -82 1 -15 4 -16 16 -6 12 10 13 9 4
-8 -13 -25 -5 -87 10 -78 7 4 8 0 4 -11 -4 -10 -2 -27 4 -38 6 -11 12 -30 14
-42 6 -45 28 -116 36 -116 5 0 5 -7 2 -17 -5 -12 -3 -14 7 -8 8 5 11 4 7 -2
-8 -12 11 -73 21 -72 19 3 23 -3 12 -16 -10 -12 -10 -19 -2 -27 7 -7 12 -20
12 -29 0 -9 6 -19 14 -22 9 -4 14 -18 14 -35 -1 -27 46 -129 65 -143 5 -3 8
-8 8 -10 -2 -15 13 -48 20 -43 5 3 6 -1 4 -9 -3 -7 6 -30 20 -51 14 -20 25
-41 25 -46 0 -4 3 -10 8 -12 4 -1 27 -43 52 -91 25 -51 56 -97 72 -108 15 -11
28 -29 28 -40 0 -10 7 -19 15 -19 8 0 19 -15 24 -32 5 -18 10 -27 10 -20 1 10
4 10 15 0 7 -7 12 -18 9 -24 -2 -6 3 -18 11 -27 9 -9 16 -20 16 -26 0 -5 18
-25 40 -42 22 -18 40 -41 40 -51 0 -13 4 -17 13 -12 6 4 9 4 5 -1 -10 -11 11
-47 23 -40 5 4 8 2 7 -3 -5 -14 63 -92 75 -85 5 3 7 2 4 -4 -6 -10 37 -58 51
-58 4 0 6 -3 4 -8 -3 -9 250 -258 256 -252 3 2 13 -6 23 -19 11 -13 52 -48 91
-77 40 -30 75 -56 78 -60 5 -6 132 -94 215 -149 22 -15 56 -36 75 -46 19 -10
37 -21 40 -24 9 -9 145 -81 230 -122 299 -142 673 -250 1040 -300 149 -20 616
-17 765 5 559 83 1010 250 1440 535 139 92 283 210 463 379 128 121 177 177
135 155 -29 -16 -665 -10 -670 6 -3 6 0 12 6 12 6 0 59 47 117 105 97 95 136
120 119 77 -3 -9 -2 -13 2 -8 4 4 8 29 9 56 1 58 31 93 87 104 20 4 37 12 37
18 0 6 -8 7 -17 3 -14 -5 -15 -4 -6 6 10 10 15 10 27 0 12 -10 14 -9 9 8 -3
14 -1 21 9 21 7 0 22 10 32 22 15 17 17 25 7 41 -10 15 -9 21 6 33 10 7 22 14
27 14 4 0 6 7 2 15 -6 18 -1 19 25 5 16 -9 19 -7 19 9 0 11 -6 22 -12 25 -7 3
-1 3 15 0 26 -6 38 8 17 21 -16 10 -11 28 6 21 10 -4 26 6 46 28 25 29 33 33
48 23 14 -8 22 -7 36 4 12 9 18 10 21 3 2 -6 10 -19 17 -30 13 -17 13 -16 11
8 -2 14 -8 35 -14 46 -8 15 -8 31 2 59 21 65 96 75 156 20 23 -21 23 -21 17
-2 -5 16 0 23 25 32 17 7 33 21 36 32 3 12 13 21 22 21 15 0 31 21 47 63 3 9
10 17 15 17 4 0 11 16 15 35 3 19 11 38 17 42 6 4 7 -4 3 -22 -7 -26 -6 -27
11 -10 10 10 18 25 18 34 0 9 6 15 12 14 9 -2 11 7 6 28 -4 23 -2 34 10 40 8
5 19 24 23 42 3 17 15 38 24 44 35 25 45 110 11 89 -14 -9 -3 53 13 73 8 11 8
13 -1 7 -19 -11 -16 29 3 48 8 9 11 16 5 16 -6 0 -11 11 -11 25 0 14 6 25 13
25 9 0 9 2 -1 8 -10 7 -13 126 -15 558 -3 593 -2 582 -60 707 -89 195 -277
351 -473 392 -37 8 -71 18 -76 23 -4 4 -17 40 -28 80 -53 190 -162 408 -307
615 -30 43 -54 80 -52 82 2 3 36 37 74 77 74 76 116 124 200 222 28 33 55 65
62 71 7 7 15 25 19 40 4 14 13 29 20 32 8 3 14 16 14 29 0 21 3 23 19 15 14
-8 20 -7 25 4 3 8 1 15 -3 15 -5 0 -12 7 -15 16 -5 12 -2 15 13 11 10 -2 25 0
32 5 11 8 10 9 -3 4 -22 -7 -24 10 -2 22 14 8 14 10 -1 22 -15 12 -16 12 -13
-5 2 -16 -5 -21 -40 -29 -47 -10 -61 -4 -43 18 8 10 9 16 1 21 -6 3 -8 10 -5
15 3 4 -5 6 -17 3 -23 -5 -23 -5 -3 10 20 15 20 16 1 30 -14 10 -16 16 -7 21
9 6 9 11 0 22 -9 11 -9 14 0 14 7 0 9 5 6 10 -8 12 -16 12 -35 0 -13 -9 -13
-11 0 -20 9 -6 10 -10 3 -10 -22 0 -25 22 -5 40 11 10 23 16 26 13 3 -4 6 -1
6 5 0 7 -9 12 -21 12 -13 0 -18 4 -13 12 5 7 2 9 -9 5 -23 -9 -32 62 -18 139
7 32 14 107 18 166 l6 107 37 25 c160 106 205 332 100 495 -42 65 -69 86 -153
125 -47 21 -72 26 -138 26 -70 0 -90 -4 -145 -30 -104 -50 -166 -117 -192
-206 -16 -54 -15 -188 0 -233 21 -62 75 -138 122 -173 43 -31 45 -35 46 -84 0
-102 -65 -344 -128 -469 -35 -71 -118 -203 -158 -251 l-34 -42 -37 35 c-120
112 -328 248 -525 343 -253 121 -506 190 -830 225 -45 5 -55 9 -53 23 2 9 4
51 6 92 1 41 4 65 6 53 4 -21 5 -21 22 -4 10 10 20 25 24 34 4 10 12 14 22 11
10 -4 15 -2 13 7 -2 8 4 13 14 13 10 -1 17 1 16 5 -1 3 30 38 69 78 116 117
170 256 160 408 -14 212 -135 384 -312 442 -137 45 -202 52 -300 28z m166
-284 c10 -10 16 -21 14 -23 -2 -2 5 -4 15 -4 18 0 18 1 2 20 -17 19 -17 19 10
1 15 -9 25 -21 22 -26 -3 -5 2 -6 10 -3 10 4 20 -3 27 -20 7 -14 16 -23 20
-20 5 3 9 3 9 1 0 -3 7 -22 15 -43 14 -35 14 -37 0 -20 -8 11 -15 16 -15 12 0
-5 -7 -3 -15 4 -12 10 -15 10 -15 -3 0 -8 5 -17 11 -19 6 -2 -1 -16 -15 -31
-14 -16 -26 -32 -26 -36 0 -5 -15 -24 -34 -44 -24 -26 -46 -38 -75 -43 -22 -4
-38 -10 -35 -15 8 -14 -40 -11 -54 4 -7 6 -16 12 -20 12 -14 0 -82 58 -82 70
0 7 -7 15 -15 19 -8 3 -15 12 -15 21 0 8 -6 15 -14 15 -15 0 -29 -98 -16 -115
4 -5 10 -23 13 -40 5 -27 4 -28 -8 -11 -8 10 -11 24 -9 31 3 7 1 16 -5 20 -15
8 -14 108 0 122 6 6 19 9 28 6 13 -4 14 -3 1 5 -8 6 -18 8 -22 6 -33 -21 53
105 92 134 60 44 166 51 201 13z m-2127 -197 c39 -39 -2 -104 -78 -125 -33 -9
-41 -8 -56 8 -30 30 -32 57 -9 87 12 15 31 32 43 36 34 14 83 11 100 -6z
m4226 -6 c77 -39 121 -131 99 -210 -24 -92 -85 -140 -179 -141 -72 0 -120 27
-157 90 -95 162 71 344 237 261z m47 -908 c-1 -16 -5 -30 -9 -30 -5 0 -8 -10
-8 -22 0 -12 -3 -18 -6 -15 -6 6 15 97 22 97 2 0 2 -13 1 -30z m-1832 -149
c302 -61 554 -162 775 -309 106 -71 220 -166 220 -183 0 -14 -127 -145 -229
-236 -295 -264 -724 -442 -1063 -443 l-78 0 -2 333 -3 332 -80 -3 c-187 -8
-399 -54 -560 -121 -54 -23 -106 -41 -115 -41 -40 0 -76 84 -49 116 20 24 74
48 197 89 159 52 325 84 480 92 l132 6 0 139 0 138 -32 0 c-78 0 -260 -23
-363 -45 -304 -66 -594 -204 -825 -393 -41 -34 -79 -62 -85 -61 -5 0 -27 21
-49 47 l-39 47 64 58 c231 214 639 394 1023 452 146 22 540 14 681 -14z
m-2457 -161 c12 -19 11 -20 -8 -8 -20 13 -27 28 -12 28 4 0 13 -9 20 -20z m57
-100 c3 -5 1 -10 -4 -10 -6 0 -11 5 -11 10 0 6 2 10 4 10 3 0 8 -4 11 -10z
m133 -270 c-7 -10 -14 -17 -17 -15 -4 4 18 35 25 35 2 0 -1 -9 -8 -20z m347
-257 l62 -67 -47 -61 c-174 -223 -330 -554 -379 -802 -19 -98 -40 -285 -44
-398 l-2 -60 -55 0 -55 0 -3 150 c-7 363 42 612 178 891 75 155 249 414 278
414 3 0 33 -30 67 -67z m3226 -36 c146 -187 259 -405 321 -622 59 -204 59
-212 55 -937 l-3 -663 -27 -97 c-42 -154 -65 -215 -132 -353 -204 -421 -535
-748 -980 -966 -253 -124 -550 -205 -792 -216 l-123 -6 2 354 3 354 63 8 c34
4 88 17 118 28 111 42 233 146 250 215 22 87 -60 180 -140 160 -14 -3 -47 -25
-73 -48 -56 -48 -113 -76 -177 -84 l-46 -7 2 1109 3 1109 120 6 c274 15 527
85 781 215 213 110 367 225 554 414 69 70 130 126 135 125 6 -1 44 -45 86 -98z
m-4016 -407 c-4 -6 -10 -8 -14 -6 -4 3 -6 -13 -5 -35 2 -44 0 -46 -23 -23 -13
13 -14 20 -5 35 7 10 12 25 12 32 0 7 5 18 12 25 9 9 14 9 21 -3 4 -8 5 -20 2
-25z m26 -32 c-30 -96 -31 -97 -25 -43 5 46 33 119 42 110 2 -2 -5 -32 -17
-67z m-31 -118 c0 -5 -5 -10 -11 -10 -5 0 -7 5 -4 10 3 6 8 10 11 10 2 0 4 -4
4 -10z m-30 -11 c0 -4 -7 -9 -15 -13 -9 -3 -15 0 -15 8 0 7 7 13 15 13 8 0 15
-4 15 -8z m-43 -15 c-3 -3 -12 -4 -19 -1 -8 3 -5 6 6 6 11 1 17 -2 13 -5z
m-71 -16 c4 -7 4 -10 -1 -6 -4 4 -16 3 -26 -2 -11 -6 -20 -6 -24 -1 -4 8 9 15
37 20 4 0 10 -5 14 -11z m-394 -337 c-20 -38 -38 -68 -40 -66 -4 4 46 104 60
123 22 26 16 10 -20 -57z m508 -757 l0 -805 -22 7 c-77 24 -164 107 -209 200
l-34 69 0 530 0 531 38 76 c40 83 96 141 170 177 23 12 45 21 50 21 4 0 7
-363 7 -806z m4802 774 c116 -61 183 -174 198 -330 12 -123 12 -835 0 -917
-21 -149 -136 -297 -253 -326 l-27 -7 0 806 c0 584 3 806 11 806 6 0 38 -14
71 -32z m-5363 -101 c12 -15 12 -17 -3 -11 -9 3 -16 13 -16 22 0 8 1 13 3 11
1 -2 9 -12 16 -22z m-5 -43 c3 -8 2 -12 -4 -9 -6 3 -10 10 -10 16 0 14 7 11
14 -7z m-14 -69 c-8 -39 -8 -40 -9 -7 -1 20 -5 31 -11 27 -16 -10 -42 3 -34
16 4 8 9 7 16 -2 7 -12 11 -11 21 3 18 26 26 8 17 -37z m-43 -17 c-1 -15 -11
-26 -26 -30 -33 -10 -41 0 -17 18 11 8 14 14 7 14 -7 0 -9 5 -6 10 3 6 15 10
25 10 15 0 19 -6 17 -22z m1968 -29 c88 -12 139 -28 115 -37 -27 -10 -40 -28
-27 -41 6 -6 16 -11 22 -11 5 0 3 4 -5 10 -8 5 -12 11 -9 14 9 9 71 -24 106
-57 18 -17 37 -27 45 -23 7 4 3 -1 -10 -10 -23 -17 -23 -17 -3 -38 22 -25 61
-92 61 -107 0 -13 -61 22 -67 39 -3 6 -13 12 -22 12 -9 0 -12 -3 -6 -8 9 -6
35 -56 35 -67 0 -3 -7 -5 -15 -5 -8 0 -15 9 -15 20 0 11 -4 20 -10 20 -13 0
-13 -15 1 -64 8 -29 8 -41 -1 -50 -9 -8 -11 -5 -5 14 5 19 4 21 -4 10 -9 -12
-11 -13 -11 -1 0 8 -3 12 -6 9 -3 -4 2 -20 10 -37 9 -16 12 -32 7 -35 -5 -3
-18 16 -29 42 -21 48 -53 83 -107 117 -23 15 -45 18 -93 16 -82 -3 -116 -19
-180 -82 -52 -51 -53 -53 -59 -122 -4 -48 -9 -65 -14 -52 -11 29 -10 13 2 -45
6 -27 15 -48 19 -45 5 3 16 -8 25 -25 8 -16 12 -30 8 -30 -5 0 0 -7 10 -14 10
-8 17 -20 16 -28 -3 -25 1 -38 12 -38 6 0 9 6 6 14 -3 8 2 16 14 19 10 3 19 0
20 -6 1 -7 5 -1 9 13 5 17 8 -1 9 -57 l1 -83 -28 0 c-40 0 -51 -15 -42 -56 11
-46 -7 -53 -62 -24 -59 31 -139 100 -131 112 3 6 1 8 -5 5 -13 -9 -66 71 -93
142 -42 113 -40 279 7 380 48 106 164 227 251 262 38 16 123 37 150 38 12 1
56 -4 98 -10z m-1965 -13 c0 -3 -4 -8 -10 -11 -5 -3 -10 -1 -10 4 0 6 5 11 10
11 6 0 10 -2 10 -4z m2135 -38 c18 -8 22 -14 13 -20 -19 -12 -35 -9 -18 3 12
9 11 10 -6 6 -13 -3 -21 1 -21 9 0 17 0 17 32 2z m74 -43 c6 -3 11 -12 11 -18
0 -8 -3 -7 -9 2 -5 7 -13 11 -18 8 -6 -4 -18 0 -29 7 -17 13 -16 13 8 11 15
-2 32 -6 37 -10z m21 -225 c0 -5 -4 -10 -10 -10 -5 0 -10 5 -10 10 0 6 5 10
10 10 6 0 10 -4 10 -10z m-2448 -40 c-2 -17 1 -36 7 -44 9 -11 7 -15 -9 -19
-12 -3 -20 -13 -20 -26 0 -12 -4 -21 -10 -21 -14 0 -12 23 3 39 10 11 10 14 0
18 -8 3 -13 22 -13 44 0 34 3 39 23 39 20 0 23 -4 19 -30z m127 26 c-2 -2 -14
-9 -26 -15 -19 -10 -23 -9 -23 4 0 10 9 15 27 15 14 0 24 -2 22 -4z m-79 -36
c0 -5 -7 -10 -15 -10 -8 0 -15 5 -15 10 0 6 7 10 15 10 8 0 15 -4 15 -10z m79
-36 c2 -2 -8 -4 -22 -4 -18 0 -27 5 -27 15 0 13 4 14 23 4 12 -6 24 -13 26
-15z m2255 -86 c-3 -11 -7 -31 -9 -44 -2 -25 -12 -41 -19 -33 -2 2 -2 27 1 56
4 39 9 50 19 46 9 -3 12 -13 8 -25z m-2417 -20 c-3 -8 -6 -5 -6 6 -1 11 2 17
5 13 3 -3 4 -12 1 -19z m23 -49 c0 -5 -4 -9 -10 -9 -5 0 -10 7 -10 16 0 8 5
12 10 9 6 -3 10 -10 10 -16z m2314 -81 c-10 -13 -23 -26 -29 -30 -47 -32 -49
-35 -46 -92 1 -31 -2 -56 -7 -56 -5 0 -10 27 -11 60 -2 59 -2 59 36 83 21 13
44 32 52 41 7 9 16 16 19 16 3 0 -3 -10 -14 -22z m-2349 -187 c3 -5 1 -12 -5
-16 -5 -3 -10 1 -10 9 0 18 6 21 15 7z m2275 -11 c0 -5 -5 -10 -11 -10 -5 0
-7 5 -4 10 3 6 8 10 11 10 2 0 4 -4 4 -10z m-2273 -102 c-3 -7 -5 -2 -5 12 0
14 2 19 5 13 2 -7 2 -19 0 -25z m40 -20 c-3 -7 -5 -2 -5 12 0 14 2 19 5 13 2
-7 2 -19 0 -25z m-2 -58 c3 -5 1 -10 -4 -10 -6 0 -11 5 -11 10 0 6 2 10 4 10
3 0 8 -4 11 -10z m82 -282 c-3 -8 -6 -5 -6 6 -1 11 2 17 5 13 3 -3 4 -12 1
-19z m6083 -3 c0 -8 -4 -15 -10 -15 -5 0 -10 7 -10 15 0 8 5 15 10 15 6 0 10
-7 10 -15z m-20 -35 c0 -5 -7 -10 -15 -10 -8 0 -15 5 -15 10 0 6 7 10 15 10 8
0 15 -4 15 -10z m-5993 -252 c-3 -8 -6 -5 -6 6 -1 11 2 17 5 13 3 -3 4 -12 1
-19z m574 -175 c33 -28 30 -94 -5 -129 -8 -8 -33 -14 -55 -14 -68 0 -100 64
-66 130 8 16 23 31 32 33 27 7 76 -3 94 -20z m4913 -88 c3 -8 1 -15 -4 -15 -6
0 -10 7 -10 15 0 8 2 15 4 15 2 0 6 -7 10 -15z m-4759 -163 c-2 -2 4 -12 13
-23 10 -12 18 -15 23 -8 4 7 9 4 12 -6 5 -10 3 -14 -4 -9 -9 5 -10 -4 -5 -30
9 -48 -8 -99 -39 -116 -13 -7 -23 -16 -20 -19 7 -13 -81 2 -97 16 -9 8 -22 12
-29 7 -7 -4 -10 -3 -6 3 4 6 1 23 -5 40 -14 37 -3 98 22 123 13 13 15 20 7 23
-7 2 20 4 60 3 39 0 70 -2 68 -4z m4364 -206 c-9 -8 -10 -7 -5 7 3 10 7 26 7
35 1 9 4 6 6 -7 3 -13 -1 -28 -8 -35z"/>
<path d="M4925 8449 c-9 -14 -2 -20 14 -10 8 6 9 11 3 15 -6 3 -14 1 -17 -5z"/>
<path d="M6002 5461 c-125 -32 -215 -83 -313 -180 -70 -70 -94 -102 -128 -171
-61 -126 -74 -191 -69 -335 6 -138 26 -210 89 -317 90 -153 217 -253 400 -315
42 -14 84 -18 189 -18 122 1 143 3 215 28 207 73 383 263 441 477 23 86 23
252 1 340 -57 221 -234 412 -447 482 -92 30 -277 35 -378 9z m273 -183 c42
-10 165 -67 165 -75 0 -3 -7 -2 -16 1 -14 5 -15 4 -4 -9 10 -12 10 -18 0 -30
-12 -14 -15 -14 -31 1 -10 9 -24 14 -31 12 -8 -3 -1 -15 21 -34 18 -16 52 -47
75 -68 39 -37 40 -38 13 -32 -15 3 -26 3 -25 -1 0 -5 -2 -16 -7 -27 -5 -11 -3
-26 4 -37 9 -15 8 -19 -2 -19 -21 0 -43 48 -29 62 17 17 15 28 -4 28 -8 0 -13
4 -10 8 2 4 -4 9 -16 9 -20 2 -20 2 1 -16 25 -21 27 -31 7 -31 -10 0 -16 -13
-18 -37 l-4 -38 -13 30 c-8 17 -15 25 -18 17 -3 -7 3 -25 12 -39 17 -26 18
-26 32 -7 13 18 14 17 8 -11 -5 -22 -4 -26 4 -15 8 11 9 8 6 -15 -2 -17 -4
-34 -4 -40 -1 -5 -5 -3 -10 5 -6 8 -7 18 -4 23 3 5 2 12 -3 16 -26 19 -87 93
-73 88 9 -3 16 0 16 8 0 11 -5 11 -20 4 -13 -8 -22 -8 -30 0 -16 16 -142 13
-183 -4 -20 -8 -60 -38 -89 -67 l-52 -53 -7 -90 c-7 -83 -5 -93 13 -117 12
-14 21 -29 21 -33 0 -15 52 -74 63 -71 7 1 9 1 6 -1 -11 -7 4 -65 17 -70 19
-7 18 -23 -1 -23 -8 0 -15 -8 -15 -19 0 -21 -23 -45 -33 -34 -4 3 -7 -5 -8
-18 -2 -54 -4 -62 -15 -66 -7 -2 -18 2 -25 9 -8 8 -29 20 -46 27 -69 28 -204
189 -189 227 3 8 2 13 -3 10 -17 -11 -33 59 -38 161 -7 131 15 207 87 310 80
113 150 164 273 198 55 15 158 12 232 -7z m230 -128 c10 -11 16 -20 13 -20 -3
0 -13 9 -23 20 -10 11 -16 20 -13 20 3 0 13 -9 23 -20z m-61 -4 c-3 -9 3 -17
15 -21 12 -3 21 -11 21 -17 0 -16 -44 17 -48 36 -2 9 1 16 7 16 6 0 8 -6 5
-14z m45 -176 c1 -13 0 -13 -9 0 -5 8 -9 24 -9 35 l0 20 9 -20 c5 -11 9 -27 9
-35z m-81 -174 c-2 -41 -6 -72 -10 -69 -5 2 -8 0 -8 -5 0 -19 -71 -101 -100
-115 -16 -9 -30 -11 -30 -6 0 5 4 9 8 9 5 0 27 17 50 38 44 39 72 101 72 157
0 34 8 65 17 65 2 0 3 -33 1 -74z m-130 -307 c-2 -69 -18 -53 -17 18 0 52 2
63 10 45 5 -13 8 -41 7 -63z m-208 -23 c0 -3 -4 -8 -10 -11 -5 -3 -10 -1 -10
4 0 6 5 11 10 11 6 0 10 -2 10 -4z"/>
<path d="M6260 5241 c0 -8 41 -23 47 -17 2 1 -8 8 -22 14 -14 6 -25 8 -25 3z"/>
<path d="M6349 5231 c11 -7 11 -9 0 -14 -10 -4 -9 -6 3 -6 23 -1 32 15 12 23
-23 9 -31 7 -15 -3z"/>
<path d="M6391 5210 c0 -8 4 -22 9 -30 12 -18 12 -2 0 25 -6 13 -9 15 -9 5z"/>
<path d="M6290 5166 c0 -8 4 -17 9 -20 5 -4 7 3 4 14 -6 23 -13 26 -13 6z"/>
<path d="M6294 5060 c-4 -16 -11 -30 -16 -30 -5 0 -6 4 -3 10 4 6 -1 7 -11 3
-14 -5 -14 -7 -1 -15 24 -13 42 0 44 32 3 39 -6 39 -13 0z"/>
<path d="M6325 5030 c3 -5 10 -10 16 -10 5 0 9 5 9 10 0 6 -7 10 -16 10 -8 0
-12 -4 -9 -10z"/>
<path d="M5900 4448 c0 -4 4 -8 9 -8 6 0 12 4 15 8 3 5 -1 9 -9 9 -8 0 -15 -4
-15 -9z"/>
<path d="M4165 5171 c-3 -5 -1 -12 5 -16 5 -3 10 1 10 9 0 18 -6 21 -15 7z"/>
<path d="M4250 5170 c-8 -5 -12 -11 -9 -14 2 -3 11 -1 19 4 8 5 12 11 9 14 -2
3 -11 1 -19 -4z"/>
<path d="M4287 5153 c-4 -3 1 -12 9 -21 9 -9 19 -11 24 -6 6 6 2 14 -9 21 -10
7 -21 9 -24 6z"/>
<path d="M4160 5119 c0 -5 5 -7 10 -4 6 3 10 8 10 11 0 2 -4 4 -10 4 -5 0 -10
-5 -10 -11z"/>
<path d="M4212 5043 c2 -6 -6 -19 -17 -28 -20 -16 -20 -16 2 -6 31 16 40 13
17 -4 -19 -14 -19 -14 1 -15 12 0 16 -3 9 -8 -7 -5 -3 -14 12 -29 19 -19 24
-20 34 -8 10 11 7 15 -13 20 -19 5 -24 12 -22 31 1 13 -4 32 -12 41 -7 10 -12
13 -11 6z"/>
<path d="M4255 5020 c-3 -5 -1 -10 4 -10 6 0 11 5 11 10 0 6 -2 10 -4 10 -3 0
-8 -4 -11 -10z"/>
<path d="M3830 4650 c0 -5 5 -10 11 -10 5 0 7 5 4 10 -3 6 -8 10 -11 10 -2 0
-4 -4 -4 -10z"/>
<path d="M3685 4500 c3 -5 8 -10 11 -10 2 0 4 5 4 10 0 6 -5 10 -11 10 -5 0
-7 -4 -4 -10z"/>
<path d="M3714 4468 c-3 -5 1 -16 10 -24 9 -8 11 -9 6 -2 -14 17 -12 28 4 22
8 -3 16 -1 19 3 3 5 -3 9 -13 10 -11 1 -22 -3 -26 -9z"/>
<path d="M3790 4395 c14 -8 30 -14 35 -14 6 0 -1 6 -15 14 -14 8 -29 14 -35
14 -5 0 1 -6 15 -14z"/>
<path d="M6600 8656 c0 -2 7 -6 15 -10 8 -3 15 -1 15 4 0 6 -7 10 -15 10 -8 0
-15 -2 -15 -4z"/>
<path d="M6643 8647 c0 -7 9 -13 19 -13 10 0 18 1 18 3 0 1 -8 7 -18 12 -13 7
-19 6 -19 -2z"/>
<path d="M6650 8590 c0 -16 -6 -33 -14 -37 -12 -7 -11 -10 2 -23 14 -13 15
-12 10 2 -4 8 -3 19 1 24 14 15 22 64 11 64 -5 0 -10 -13 -10 -30z"/>
<path d="M6673 8575 c4 -8 2 -17 -3 -20 -6 -4 -10 -11 -10 -18 0 -15 29 25 30
41 0 6 -5 12 -11 12 -6 0 -9 -7 -6 -15z"/>
<path d="M6584 8549 c-7 -13 13 -29 36 -28 10 0 11 2 3 6 -7 2 -13 11 -13 19
0 17 -16 19 -26 3z"/>
<path d="M6638 8503 c7 -3 16 -2 19 1 4 3 -2 6 -13 5 -11 0 -14 -3 -6 -6z"/>
<path d="M8519 7782 c12 -8 11 -11 -3 -15 -15 -4 -15 -5 1 -3 19 1 21 19 1 24
-10 3 -10 1 1 -6z"/>
<path d="M8235 7770 c3 -5 11 -10 16 -10 6 0 7 5 4 10 -3 6 -11 10 -16 10 -6
0 -7 -4 -4 -10z"/>
<path d="M8566 7747 c3 -10 9 -15 12 -12 3 3 0 11 -7 18 -10 9 -11 8 -5 -6z"/>
<path d="M8602 7701 c-11 -7 -11 -9 0 -14 9 -3 15 1 15 9 0 8 -1 14 -1 14 -1
0 -7 -4 -14 -9z"/>
<path d="M8645 7649 c-4 -11 -4 -23 -1 -26 3 -4 6 1 6 10 0 8 5 17 12 19 9 3
9 6 1 11 -7 4 -14 -1 -18 -14z"/>
<path d="M8694 7646 c5 -14 3 -17 -10 -12 -12 5 -15 2 -10 -10 3 -8 6 -20 6
-25 0 -5 7 -9 15 -9 19 0 36 -34 29 -57 -5 -15 -4 -15 5 -3 8 12 11 12 11 1 0
-7 6 -11 15 -7 10 3 15 -1 15 -11 0 -9 3 -14 6 -10 3 3 3 15 -1 28 -6 17 -9
19 -17 8 -7 -11 -9 -9 -7 6 2 33 -1 41 -11 25 -8 -12 -10 -11 -10 6 0 11 -6
26 -12 33 -10 11 -10 13 0 7 18 -10 15 -2 -10 25 -16 19 -20 20 -14 5z"/>
<path d="M8540 7595 c-9 -11 -10 -19 -3 -26 8 -8 13 -7 18 2 5 8 4 10 -3 5
-16 -9 -15 7 0 22 7 7 9 12 6 12 -3 0 -11 -7 -18 -15z"/>
<path d="M8637 7546 c-6 -14 0 -26 14 -26 3 0 9 9 12 20 6 23 -18 28 -26 6z"/>
<path d="M8627 7486 c-9 -13 -13 -26 -10 -30 3 -3 12 6 20 21 17 34 10 41 -10
9z"/>
<path d="M8725 7500 c-3 -5 -1 -10 4 -10 6 0 11 5 11 10 0 6 -2 10 -4 10 -3 0
-8 -4 -11 -10z"/>
<path d="M8670 7470 c0 -5 5 -10 10 -10 6 0 10 5 10 10 0 6 -4 10 -10 10 -5 0
-10 -4 -10 -10z"/>
<path d="M8740 7466 c0 -7 -15 -17 -32 -22 -29 -8 -33 -14 -36 -47 -3 -34 -1
-37 22 -37 21 0 26 5 27 28 1 15 1 33 0 40 -1 6 5 12 12 12 8 0 17 9 20 20 3
11 1 20 -4 20 -5 0 -9 -6 -9 -14z"/>
<path d="M8790 7454 c0 -9 -5 -12 -11 -8 -7 4 -10 1 -7 -6 8 -26 28 -22 28 4
0 14 -2 26 -5 26 -3 0 -5 -7 -5 -16z"/>
<path d="M8591 7444 c0 -11 3 -14 6 -6 3 7 2 16 -1 19 -3 4 -6 -2 -5 -13z"/>
<path d="M8636 7441 c-4 -5 3 -7 14 -4 23 6 26 13 6 13 -8 0 -17 -4 -20 -9z"/>
<path d="M8610 7406 c0 -9 4 -16 9 -16 5 0 12 -12 14 -27 4 -27 4 -27 6 3 0
18 -6 37 -14 44 -12 10 -15 10 -15 -4z"/>
<path d="M8776 7394 c-10 -25 -7 -32 12 -37 9 -3 -2 -5 -25 -6 -54 -1 -57 -21
-3 -21 33 0 40 -3 40 -20 0 -17 -7 -20 -38 -20 -25 0 -45 -7 -55 -18 -21 -23
-21 -32 -2 -32 8 0 15 -7 15 -15 0 -19 -14 -19 -30 0 -16 19 -51 16 -58 -4 -3
-8 0 -11 7 -7 13 8 54 -17 44 -27 -3 -4 -14 -7 -23 -7 -20 0 -43 -49 -43 -90
0 -28 -1 -28 -26 -12 -14 10 -22 12 -18 5 4 -6 0 -19 -9 -27 -9 -9 -13 -23
-10 -31 3 -8 0 -14 -7 -12 -7 1 -11 -4 -9 -11 1 -8 -2 -11 -8 -7 -14 9 -42
-14 -33 -28 3 -6 1 -7 -5 -3 -7 4 -12 2 -12 -3 0 -6 -5 -11 -11 -11 -7 0 -22
-12 -35 -27 -23 -27 -23 -28 -4 -35 11 -4 20 -14 20 -23 0 -19 -19 -20 -26 -1
-8 22 -30 9 -29 -17 2 -35 16 -59 32 -53 8 3 11 1 8 -4 -10 -16 45 -23 88 -11
31 9 62 33 120 92 42 43 77 86 77 94 0 8 4 15 10 15 5 0 6 7 3 17 -4 11 -3 14
5 9 8 -5 10 -2 6 8 -3 9 -11 13 -17 9 -6 -3 -7 -1 -3 6 6 9 11 9 21 1 12 -10
13 -6 5 21 -5 18 -7 35 -5 38 3 2 5 0 5 -4 0 -5 7 0 15 11 8 10 15 14 15 7 0
-6 -4 -15 -10 -18 -5 -3 -10 -14 -10 -23 1 -9 10 0 21 22 12 21 18 47 16 57
-3 11 -1 17 4 13 5 -3 9 -1 9 5 0 5 3 18 6 28 5 15 4 15 -5 3 -8 -12 -11 -8
-10 20 0 23 3 29 7 18 4 -10 7 25 7 77 0 52 -3 87 -7 77 -5 -14 -7 -13 -7 6
-1 25 -16 29 -25 6z m24 -129 c0 -11 -11 -15 -40 -15 -29 0 -40 4 -40 15 0 11
11 15 40 15 29 0 40 -4 40 -15z m-35 -75 c-3 -5 -10 -10 -16 -10 -5 0 -9 5 -9
10 0 6 7 10 16 10 8 0 12 -4 9 -10z m-72 -50 c6 -23 6 -24 -28 -8 -29 13 -32
25 -7 31 23 5 29 1 35 -23z m-91 -112 c-5 -5 -16 -6 -26 -2 -13 5 -14 9 -5 20
9 11 15 12 26 3 8 -7 10 -16 5 -21z m78 -102 c0 -2 -7 -9 -15 -16 -13 -11 -14
-10 -9 4 5 14 24 23 24 12z m-30 -40 c0 -2 -8 -10 -17 -17 -16 -13 -17 -12 -4
4 13 16 21 21 21 13z m-45 -46 c-3 -5 -12 -10 -18 -10 -7 0 -6 4 3 10 19 12
23 12 15 0z m-85 -50 c-8 -5 -19 -10 -25 -10 -5 0 -3 5 5 10 8 5 20 10 25 10
6 0 3 -5 -5 -10z"/>
<path d="M7455 7370 c10 -11 20 -20 23 -20 3 0 -3 9 -13 20 -10 11 -20 20 -23
20 -3 0 3 -9 13 -20z"/>
<path d="M7445 7323 c0 -30 24 -49 50 -39 26 10 -1 38 -29 31 -14 -4 -17 -3
-8 3 11 7 10 11 0 20 -11 9 -14 6 -13 -15z"/>
<path d="M2935 7320 c3 -5 8 -10 11 -10 2 0 4 5 4 10 0 6 -5 10 -11 10 -5 0
-7 -4 -4 -10z"/>
<path d="M2946 7285 c-3 -8 -1 -15 4 -15 6 0 10 7 10 15 0 8 -2 15 -4 15 -2 0
-6 -7 -10 -15z"/>
<path d="M2977 7229 c4 -13 8 -18 11 -10 2 7 -1 18 -6 23 -8 8 -9 4 -5 -13z"/>
<path d="M7570 7229 c0 -5 5 -7 10 -4 6 3 10 8 10 11 0 2 -4 4 -10 4 -5 0 -10
-5 -10 -11z"/>
<path d="M2105 7181 c-3 -6 -16 -11 -27 -11 -21 0 -21 0 2 -20 12 -11 27 -17
32 -14 6 4 5 10 -3 15 -12 8 -12 11 1 18 8 6 12 13 8 16 -3 4 -9 2 -13 -4z"/>
<path d="M1911 7144 c0 -11 3 -14 6 -6 3 7 2 16 -1 19 -3 4 -6 -2 -5 -13z"/>
<path d="M1970 7128 c0 -14 8 -18 38 -17 34 2 34 2 7 6 -16 3 -33 10 -37 16
-5 8 -8 6 -8 -5z"/>
<path d="M2058 7103 c7 -3 16 -2 19 1 4 3 -2 6 -13 5 -11 0 -14 -3 -6 -6z"/>
<path d="M1322 6665 c-42 -31 -64 -102 -46 -150 8 -21 56 -45 89 -45 90 0 148
110 92 175 -29 34 -100 45 -135 20z"/>
<path d="M8868 6673 c-33 -5 -78 -73 -78 -117 0 -39 49 -86 90 -86 68 0 120
49 120 113 0 40 -34 87 -64 87 -8 0 -20 2 -28 3 -7 2 -25 2 -40 0z"/>
<path d="M3053 6590 c2 -8 10 -15 17 -15 7 0 15 7 17 15 4 13 3 13 -6 0 -10
-13 -12 -13 -22 0 -9 13 -10 13 -6 0z"/>
<path d="M2948 6415 c-8 -38 3 -51 20 -24 8 12 9 18 3 15 -5 -4 -11 4 -13 16
-3 20 -4 19 -10 -7z"/>
<path d="M2915 6330 c-17 -33 -19 -44 -6 -36 10 6 33 66 26 66 -3 0 -11 -13
-20 -30z"/>
<path d="M2877 6273 c-4 -3 -7 -13 -7 -22 1 -13 3 -13 11 2 11 19 8 33 -4 20z"/>
<path d="M2710 6239 c0 -5 5 -7 10 -4 6 3 10 8 10 11 0 2 -4 4 -10 4 -5 0 -10
-5 -10 -11z"/>
<path d="M2808 6193 c7 -3 16 -2 19 1 4 3 -2 6 -13 5 -11 0 -14 -3 -6 -6z"/>
<path d="M8760 6140 c0 -5 5 -10 10 -10 6 0 10 5 10 10 0 6 -4 10 -10 10 -5 0
-10 -4 -10 -10z"/>
<path d="M2697 6103 c-12 -11 -8 -23 8 -23 8 0 15 7 15 15 0 16 -12 20 -23 8z"/>
<path d="M8905 6099 c-4 -6 -5 -12 -2 -15 2 -3 7 2 10 11 7 17 1 20 -8 4z"/>
<path d="M8757 6086 c-4 -10 -1 -13 9 -9 7 3 14 9 14 14 0 14 -17 10 -23 -5z"/>
<path d="M8806 6039 c-8 -12 -13 -26 -10 -31 4 -5 12 3 20 18 18 34 11 43 -10
13z"/>
<path d="M8871 6048 c-1 -10 -5 -18 -11 -18 -5 0 -10 -5 -10 -11 0 -8 4 -8 14
0 11 9 15 8 20 -5 9 -22 8 -24 -11 -24 -9 0 -14 -3 -10 -6 3 -3 14 -3 24 0 12
4 19 17 20 42 1 28 -1 33 -12 24 -10 -8 -14 -8 -18 2 -4 8 -6 7 -6 -4z"/>
<path d="M8755 6040 c3 -5 10 -10 16 -10 5 0 9 5 9 10 0 6 -7 10 -16 10 -8 0
-12 -4 -9 -10z"/>
<path d="M8926 6033 c-6 -14 -5 -15 5 -6 7 7 10 15 7 18 -3 3 -9 -2 -12 -12z"/>
<path d="M8828 5973 c7 -3 16 -2 19 1 4 3 -2 6 -13 5 -11 0 -14 -3 -6 -6z"/>
<path d="M2621 5963 c0 -5 4 -17 8 -28 7 -17 8 -17 13 8 4 19 1 27 -8 27 -8 0
-14 -3 -13 -7z"/>
<path d="M2575 5941 c-3 -5 -1 -12 5 -16 5 -3 10 1 10 9 0 18 -6 21 -15 7z"/>
<path d="M2438 5873 c-37 -25 -42 -53 -10 -53 8 0 12 3 9 7 -4 4 5 19 20 35
35 37 27 42 -19 11z"/>
<path d="M2394 5799 c-3 -6 -2 -15 3 -20 5 -5 9 -1 9 11 0 23 -2 24 -12 9z"/>
<path d="M1891 5784 c0 -11 3 -14 6 -6 3 7 2 16 -1 19 -3 4 -6 -2 -5 -13z"/>
<path d="M2382 5751 c7 -9 13 -17 14 -19 1 -1 6 4 13 12 9 11 7 15 -14 18 -22
5 -24 3 -13 -11z"/>
<path d="M1862 5640 c0 -14 2 -19 5 -12 2 6 2 18 0 25 -3 6 -5 1 -5 -13z"/>
<path d="M2140 5571 c0 -12 5 -21 10 -21 6 0 10 6 10 14 0 8 -4 18 -10 21 -5
3 -10 -3 -10 -14z"/>
<path d="M1822 5340 c0 -14 2 -19 5 -12 2 6 2 18 0 25 -3 6 -5 1 -5 -13z"/>
<path d="M1970 5356 c0 -2 7 -19 15 -37 14 -34 20 -23 9 19 -5 18 -24 33 -24
18z"/>
<path d="M1818 5183 c5 -21 7 -23 10 -9 2 10 0 22 -6 28 -6 6 -7 0 -4 -19z"/>
<path d="M1807 5093 c-4 -3 -7 -18 -6 -32 1 -26 1 -25 10 3 9 31 7 41 -4 29z"/>
<path d="M1860 5071 c0 -6 5 -13 10 -16 6 -3 10 1 10 9 0 9 -4 16 -10 16 -5 0
-10 -4 -10 -9z"/>
<path d="M1150 5037 c-43 -20 -56 -40 -58 -87 -1 -25 2 -40 6 -33 5 8 18 9 42
3 l35 -8 -35 -1 c-30 -1 -32 -3 -17 -12 26 -15 64 -3 70 22 3 12 10 18 16 15
5 -4 12 -2 15 3 7 11 -17 21 -47 21 -24 0 -52 34 -42 50 11 18 25 10 25 -15 0
-26 14 -33 25 -14 5 6 11 4 19 -7 13 -18 37 -12 35 9 0 9 -2 9 -6 0 -7 -18
-23 -16 -23 2 0 8 5 15 11 15 5 0 7 5 3 11 -5 8 -9 8 -14 -1 -5 -8 -10 -6 -15
7 -5 10 -7 21 -7 26 3 10 -8 8 -38 -6z"/>
<path d="M9052 5027 c-48 -51 -35 -127 24 -141 54 -14 114 35 114 94 0 60 -95
92 -138 47z"/>
<path d="M1821 4944 c0 -11 3 -14 6 -6 3 7 2 16 -1 19 -3 4 -6 -2 -5 -13z"/>
<path d="M1801 4872 c1 -45 5 -82 10 -82 7 0 0 151 -8 160 -2 2 -3 -33 -2 -78z"/>
<path d="M1820 4890 c0 -5 5 -10 11 -10 5 0 7 5 4 10 -3 6 -8 10 -11 10 -2 0
-4 -4 -4 -10z"/>
<path d="M1832 4780 c0 -14 2 -19 5 -12 2 6 2 18 0 25 -3 6 -5 1 -5 -13z"/>
<path d="M1822 4580 c0 -19 2 -27 5 -17 2 9 2 25 0 35 -3 9 -5 1 -5 -18z"/>
<path d="M1343 4544 c-30 -23 -33 -31 -33 -79 0 -46 4 -56 26 -74 33 -26 70
-27 110 -2 59 36 68 108 19 157 -32 32 -80 32 -122 -2z"/>
<path d="M8810 4559 c0 -5 -6 -9 -14 -9 -20 0 -43 -41 -44 -75 0 -36 24 -78
40 -69 7 4 8 3 4 -5 -4 -6 0 -14 10 -18 10 -4 19 -2 22 5 2 7 8 12 13 12 6 0
7 -4 4 -10 -4 -6 5 -10 20 -10 15 0 24 4 20 10 -3 5 0 7 8 4 19 -7 57 54 54
86 -4 40 -26 72 -47 67 -10 -2 -24 0 -31 5 -11 8 -10 9 4 4 9 -3 17 -1 17 4 0
5 -18 8 -40 8 -22 0 -40 -4 -40 -9z m-25 -38 c-3 -10 -1 -30 5 -45 7 -20 7
-25 -1 -20 -6 3 -15 1 -19 -6 -5 -8 -7 -1 -6 16 3 34 15 74 22 74 3 0 3 -8 -1
-19z m145 -13 c0 -5 -7 -3 -15 6 -8 8 -15 18 -15 22 0 3 7 1 15 -6 8 -7 15
-17 15 -22z m-96 -69 c-3 -5 -10 -7 -15 -3 -5 3 -7 10 -3 15 3 5 10 7 15 3 5
-3 7 -10 3 -15z"/>
<path d="M1832 4520 c0 -14 2 -19 5 -12 2 6 2 18 0 25 -3 6 -5 1 -5 -13z"/>
<path d="M8090 4130 c0 -5 5 -10 10 -10 6 0 10 5 10 10 0 6 -4 10 -10 10 -5 0
-10 -4 -10 -10z"/>
<path d="M1343 4123 c4 -3 1 -13 -5 -21 -7 -8 -14 -30 -15 -48 -1 -27 2 -34
17 -34 13 0 18 -7 17 -20 -1 -23 -8 -25 -26 -7 -10 10 -11 9 -6 -5 4 -10 11
-18 16 -18 5 0 9 -4 9 -10 0 -5 -8 -7 -17 -4 -15 5 -16 4 -3 -5 19 -14 77 -14
85 -1 3 6 -4 11 -17 11 -19 1 -18 3 7 8 17 4 29 12 28 19 -2 7 2 12 7 12 5 0
10 7 10 15 0 8 -3 15 -7 14 -18 -3 -52 14 -57 27 -3 8 -17 14 -31 14 -15 0
-24 4 -21 9 6 10 24 9 41 -1 6 -3 21 -1 35 4 20 7 22 11 10 18 -8 5 -26 10
-40 10 -20 0 -22 2 -10 10 12 8 10 10 -9 10 -13 0 -21 -3 -18 -7z m64 -29 c-3
-3 -12 -4 -19 -1 -8 3 -5 6 6 6 11 1 17 -2 13 -5z m-12 -94 c-3 -5 -1 -10 6
-10 7 0 10 -3 6 -6 -10 -10 -39 5 -32 16 3 5 11 10 16 10 6 0 7 -4 4 -10z"/>
<path d="M1440 4101 c0 -6 4 -13 10 -16 6 -3 7 1 4 9 -7 18 -14 21 -14 7z"/>
<path d="M1296 3987 c3 -10 9 -15 12 -12 3 3 0 11 -7 18 -10 9 -11 8 -5 -6z"/>
<path d="M1296 3729 c-23 -18 -26 -28 -26 -78 0 -63 20 -93 71 -106 93 -23
170 108 104 179 -32 34 -108 37 -149 5z"/>
<path d="M8870 3742 c0 -6 -8 -9 -17 -6 -15 5 -16 4 -3 -5 10 -7 11 -11 3 -11
-7 0 -13 -5 -13 -12 0 -7 10 -3 22 10 12 12 19 25 15 28 -4 4 -7 2 -7 -4z"/>
<path d="M8810 3696 c0 -2 7 -7 16 -10 8 -3 12 -2 9 4 -6 10 -25 14 -25 6z"/>
<path d="M8855 3690 c-3 -5 -1 -10 4 -10 6 0 11 5 11 10 0 6 -2 10 -4 10 -3 0
-8 -4 -11 -10z"/>
<path d="M8830 3610 c-11 -20 -10 -25 6 -37 10 -7 34 -12 53 -11 l36 1 -33 4
c-18 2 -30 9 -26 14 3 5 11 6 17 3 7 -4 5 -1 -3 7 -8 8 -19 20 -26 28 -10 12
-13 11 -24 -9z"/>
<path d="M7633 3375 c0 -11 61 -14 72 -4 3 4 -11 8 -33 11 -22 2 -39 -1 -39
-7z"/>
<path d="M7340 3230 c0 -5 5 -10 10 -10 6 0 10 5 10 10 0 6 -4 10 -10 10 -5 0
-10 -4 -10 -10z"/>
<path d="M1608 3143 c6 -2 18 -2 25 0 6 3 1 5 -13 5 -14 0 -19 -2 -12 -5z"/>
<path d="M1545 3130 c-13 -6 -15 -9 -5 -9 8 0 22 4 30 9 18 12 2 12 -25 0z"/>
<path d="M8595 3132 c-27 -2 -54 -7 -59 -13 -6 -5 -17 -9 -27 -9 -24 0 -105
-75 -134 -125 -22 -37 -26 -55 -26 -131 0 -78 3 -95 26 -136 76 -137 241 -186
382 -115 169 86 211 328 79 458 -60 59 -127 79 -241 71z"/>
<path d="M1620 3110 c0 -5 14 -10 30 -10 17 0 30 5 30 10 0 6 -13 10 -30 10
-16 0 -30 -4 -30 -10z"/>
<path d="M1486 3085 c-9 -14 -24 -25 -34 -25 -13 0 -14 -2 -3 -9 12 -7 11 -12
-1 -30 -8 -11 -18 -18 -21 -14 -4 3 -7 -1 -7 -11 0 -9 4 -15 9 -12 5 3 11 -1
15 -9 3 -8 2 -14 -2 -13 -4 1 -23 -1 -42 -5 -26 -6 -31 -10 -21 -17 12 -7 13
-15 2 -47 -15 -45 -11 -139 5 -136 6 1 10 -8 9 -21 -2 -19 1 -23 20 -21 18 3
22 -1 19 -23 -3 -32 8 -47 59 -79 102 -64 248 -41 340 54 57 58 69 87 84 193
5 37 -31 150 -47 150 -5 0 -7 -6 -4 -14 3 -8 0 -17 -7 -21 -9 -6 -10 1 -5 27
5 27 2 38 -11 49 -17 13 -17 13 -3 -5 14 -18 14 -18 -7 -6 -11 8 -19 19 -16
25 2 7 -7 20 -21 29 -15 9 -26 12 -26 7 0 -5 9 -13 20 -16 11 -3 20 -11 20
-16 0 -12 -17 -12 -25 1 -3 6 -11 10 -17 10 -6 0 -5 -7 3 -16 12 -15 11 -16
-9 -10 -15 5 -36 2 -58 -9 -36 -17 -71 -14 -59 5 4 6 -12 10 -40 10 -42 0 -46
-2 -43 -22 2 -15 -4 -26 -21 -34 -21 -11 -27 -9 -47 13 -30 32 -30 45 -1 43
44 -4 55 0 59 25 5 22 2 25 -22 25 -18 0 -33 -8 -44 -25z m314 -50 c0 -8 -9
-15 -20 -15 -22 0 -27 15 -7 23 21 9 27 7 27 -8z m-320 -35 c0 -11 -7 -20 -15
-20 -17 0 -18 2 -9 24 9 23 24 20 24 -4z m160 6 c0 -9 -30 -14 -35 -6 -4 6 3
10 14 10 12 0 21 -2 21 -4z m-140 -36 c0 -5 -5 -10 -11 -10 -5 0 -7 5 -4 10 3
6 8 10 11 10 2 0 4 -4 4 -10z"/>
<path d="M2506 2947 c3 -10 9 -15 12 -12 3 3 0 11 -7 18 -10 9 -11 8 -5 -6z"/>
<path d="M7149 2923 c-13 -16 -12 -17 4 -4 16 13 21 21 13 21 -2 0 -10 -8 -17
-17z"/>
<path d="M7681 2867 c-13 -21 -12 -21 5 -5 10 10 16 20 13 22 -3 3 -11 -5 -18
-17z"/>
<path d="M1410 2701 c0 -6 4 -13 10 -16 6 -3 7 1 4 9 -7 18 -14 21 -14 7z"/>
<path d="M8150 2544 c0 -6 5 -15 12 -22 9 -9 9 -15 -1 -24 -10 -11 -11 -10 -6
3 14 38 -34 33 -55 -5 -6 -13 -29 -34 -51 -47 -21 -13 -37 -30 -36 -38 1 -8
-5 -16 -13 -18 -13 -4 -13 -3 0 7 13 10 13 11 0 7 -16 -5 -16 -10 -4 -42 8
-19 7 -19 -10 -2 -19 19 -31 23 -21 7 3 -5 -1 -10 -10 -10 -8 0 -18 -7 -21
-15 -4 -8 -10 -12 -16 -9 -5 3 -8 -2 -6 -11 2 -10 -4 -20 -12 -22 -13 -4 -13
-3 0 6 8 6 11 11 5 11 -5 0 -27 -18 -49 -40 -21 -22 -34 -40 -28 -40 6 0 23
12 38 28 17 17 24 21 21 10 -4 -11 1 -22 11 -28 15 -10 15 -10 -3 -9 -35 2
-36 0 -10 -28 14 -16 23 -34 20 -42 -4 -10 -2 -11 8 -3 13 11 39 2 38 -14 0
-5 19 -31 42 -58 23 -26 41 -50 40 -52 -5 -6 36 -44 47 -44 6 0 10 -8 10 -18
0 -10 17 -29 37 -43 21 -13 42 -33 48 -45 6 -11 16 -19 24 -16 10 3 11 0 2
-17 -15 -27 -10 -26 24 3 15 13 24 29 21 35 -4 6 -2 9 7 5 8 -3 62 45 140 126
99 103 127 137 127 158 -1 31 -23 65 -35 54 -5 -4 -5 -2 -2 4 8 15 -59 87 -73
79 -6 -4 -9 -2 -8 2 4 13 -60 85 -70 79 -4 -3 -14 0 -22 6 -12 8 -12 9 3 4 23
-7 22 -1 -6 26 -36 36 -62 55 -53 40 7 -11 4 -11 -13 0 -12 7 -19 19 -16 27 5
13 -21 40 -39 41 -6 0 -1 -7 10 -15 13 -10 15 -14 5 -15 -8 0 -23 7 -33 17
-10 9 -18 12 -18 7z m130 -99 c7 -9 8 -15 2 -15 -5 0 -12 7 -16 15 -3 8 -4 15
-2 15 2 0 9 -7 16 -15z m-330 -165 c0 -16 -17 -20 -28 -7 -8 10 -6 13 9 14 10
1 19 -2 19 -7z"/>
<path d="M2417 2219 c-9 -6 -17 -22 -17 -37 0 -21 -2 -24 -10 -12 -8 13 -14
10 -34 -15 -14 -18 -20 -33 -14 -36 7 -4 7 -9 0 -13 -6 -3 -12 -1 -14 5 -2 6
-53 -39 -113 -100 -112 -115 -134 -141 -116 -141 6 0 15 8 20 18 9 14 10 15
11 1 0 -21 -36 -54 -45 -40 -3 6 -12 11 -18 10 -9 0 -9 -2 1 -6 6 -2 12 -10
12 -17 0 -16 64 -78 73 -71 4 3 5 2 2 -2 -3 -3 52 -64 122 -135 148 -149 157
-152 227 -87 90 82 231 231 228 241 -1 5 2 7 7 4 5 -3 15 2 22 11 12 14 12 16
-1 8 -12 -7 -13 -6 -3 7 7 8 9 19 5 23 -4 5 -1 5 6 1 6 -4 12 -2 12 4 0 6 4 8
10 5 6 -4 6 3 0 21 -14 36 -140 165 -154 157 -6 -3 -8 -2 -3 2 4 5 -3 19 -15
32 -23 25 -48 32 -28 8 13 -15 6 -35 -13 -35 -7 0 -6 4 3 10 12 7 12 12 -5 29
-10 12 -15 24 -12 28 4 3 7 0 7 -7 0 -7 3 -11 6 -7 6 6 -101 124 -126 137 -9
5 -23 4 -33 -1z m31 -11 c8 -10 4 -13 -14 -14 -20 -2 -23 1 -13 12 14 17 14
17 27 2z m-68 -68 c0 -5 -4 -10 -10 -10 -5 0 -10 5 -10 10 0 6 5 10 10 10 6 0
10 -4 10 -10z m170 -35 c0 -2 -10 -9 -22 -15 -22 -11 -22 -10 -4 4 21 17 26
19 26 11z m-280 -75 c0 -5 -4 -10 -10 -10 -5 0 -10 5 -10 10 0 6 5 10 10 10 6
0 10 -4 10 -10z"/>
<path d="M7706 1587 c3 -10 9 -15 12 -12 3 3 0 11 -7 18 -10 9 -11 8 -5 -6z"/>
<path d="M2979 1567 c-15 -12 -28 -26 -29 -32 -1 -5 -7 -20 -13 -33 -21 -45
36 -112 94 -112 57 0 118 68 103 113 -5 12 -7 26 -6 31 2 5 -7 19 -19 32 -30
32 -94 33 -130 1z m106 3 c3 -5 1 -10 -4 -10 -6 0 -11 5 -11 10 0 6 2 10 4 10
3 0 8 -4 11 -10z"/>
<path d="M7174 1572 c-48 -40 -58 -119 -19 -157 38 -39 97 -35 141 9 40 40 45
83 14 134 -18 29 -24 32 -67 32 -31 0 -56 -7 -69 -18z"/>
<path d="M7850 1521 c-8 -6 -17 -8 -21 -5 -4 2 -10 0 -14 -6 -9 -15 18 -12 41
5 21 16 17 20 -6 6z"/>
<path d="M3958 1433 c-41 -7 -88 -69 -88 -115 0 -83 103 -143 178 -104 52 27
75 69 70 128 -3 30 -13 57 -24 69 -20 19 -87 31 -136 22z"/>
<path d="M4772 1287 c-16 -17 -22 -36 -22 -68 0 -55 13 -69 61 -69 85 0 108
108 32 148 -32 17 -47 15 -71 -11z"/>
<path d="M6187 1229 c7 -7 15 -10 18 -7 3 3 -2 9 -12 12 -14 6 -15 5 -6 -5z"/>
</g>
</svg>
